<svg data-v-423bf9ae="" xmlns="http://www.w3.org/2000/svg" viewBox="0 0 677.8658785026693 163" class="iconAbove"><!----><!----><!----><g data-v-423bf9ae="" id="1b9fa08b-c625-4b9c-a601-444eb54330ce" fill="#22C4D6" transform="matrix(6.097560882568359,0,0,6.097560882568359,-1.4634113311767578,85.31707000732422)"><path d="M1.85 12.67L0.24 2.90L2.08 2.90L3.12 9.92L5.67 2.90L7.41 2.90L9.79 9.65L10.90 2.90L12.68 2.90L10.84 12.67L9.12 12.67L6.43 5.00L3.55 12.67L1.85 12.67ZM13.77 2.90L15.59 2.90L15.59 4.33L13.77 4.33L13.77 2.90ZM13.77 5.50L15.59 5.50L15.59 12.67L13.77 12.67L13.77 5.50ZM19.11 12.67L17.29 12.67L17.29 5.50L18.70 5.50L18.92 6.55L18.92 6.55Q19.95 5.50 21.27 5.50L21.27 5.50L21.27 5.50Q23.82 5.50 23.82 8.15L23.82 8.15L23.82 12.67L22.01 12.67L22.01 8.15L22.01 8.15Q22.01 6.96 20.83 6.96L20.83 6.96L20.83 6.96Q19.95 6.96 19.11 7.66L19.11 7.66L19.11 12.67ZM30.08 10.94L30.08 7.37L30.08 7.37Q29.52 7 28.67 7L28.67 7L28.67 7Q26.98 7 26.98 8.89L26.98 8.89L26.98 8.89Q26.98 11.14 28.74 11.14L28.74 11.14L28.74 11.14Q29.45 11.14 30.08 10.94L30.08 10.94ZM31.89 2.90L31.89 12.24L31.89 12.24Q30.24 12.67 28.67 12.67L28.67 12.67L28.67 12.67Q25.19 12.67 25.19 8.94L25.19 8.94L25.19 8.94Q25.19 5.50 28.59 5.50L28.59 5.50L28.59 5.50Q29.32 5.50 30.08 5.84L30.08 5.84L30.08 2.90L31.89 2.90ZM35.07 9.06L35.07 9.06Q35.07 11.31 36.81 11.31L36.81 11.31L36.81 11.31Q38.55 11.31 38.55 9.06L38.55 9.06L38.55 9.06Q38.55 6.86 36.81 6.86L36.81 6.86L36.81 6.86Q35.07 6.86 35.07 9.06L35.07 9.06ZM33.26 9.08L33.26 9.08L33.26 9.08Q33.26 5.48 36.81 5.48L36.81 5.48L36.81 5.48Q40.37 5.48 40.37 9.08L40.37 9.08L40.37 9.08Q40.37 12.69 36.81 12.69L36.81 12.69L36.81 12.69Q33.27 12.69 33.26 9.08ZM42.87 12.67L41.12 5.50L42.94 5.50L43.87 10.49L45.53 5.50L47.09 5.50L48.88 10.49L49.68 5.50L51.57 5.50L49.70 12.67L48.00 12.67L46.31 7.58L44.60 12.67L42.87 12.67ZM52.66 12.33L52.66 12.33L52.66 10.83L52.66 10.83Q53.86 11.31 55.43 11.31L55.43 11.31L55.43 11.31Q56.59 11.31 56.59 10.55L56.59 10.55L56.59 10.55Q56.59 9.84 55.81 9.84L55.81 9.84L54.51 9.84L54.51 9.84Q52.32 9.84 52.32 7.68L52.32 7.68L52.32 7.68Q52.32 5.43 55.51 5.43L55.51 5.43L55.51 5.43Q56.87 5.43 58.06 5.84L58.06 5.84L58.06 7.34L58.06 7.34Q56.87 6.86 55.47 6.86L55.47 6.86L55.47 6.86Q54.00 6.86 54.00 7.62L54.00 7.62L54.00 7.62Q54.00 8.33 54.85 8.33L54.85 8.33L56.01 8.33L56.01 8.33Q58.41 8.33 58.41 10.49L58.41 10.49L58.41 10.49Q58.41 12.74 55.36 12.74L55.36 12.74L55.36 12.74Q53.86 12.74 52.66 12.33ZM64.73 11.10L66.75 11.10L66.75 11.10Q69.79 11.10 69.79 7.52L69.79 7.52L69.79 7.52Q69.79 4.47 66.75 4.47L66.75 4.47L64.73 4.47L64.73 11.10ZM66.75 12.67L62.92 12.67L62.92 2.90L66.75 2.90L66.75 2.90Q71.60 2.90 71.60 7.52L71.60 7.52L71.60 7.52Q71.60 12.67 66.75 12.67L66.75 12.67ZM76.00 5.50L76.00 5.50L76.00 5.50Q79.26 5.50 79.26 8.83L79.26 8.83L79.26 8.83Q79.26 9.28 79.20 9.72L79.20 9.72L74.44 9.72L74.44 9.72Q74.44 11.24 76.67 11.24L76.67 11.24L76.67 11.24Q77.75 11.24 78.84 11.03L78.84 11.03L78.84 12.47L78.84 12.47Q77.89 12.67 76.53 12.67L76.53 12.67L76.53 12.67Q72.63 12.67 72.63 9.00L72.63 9.00L72.63 9.00Q72.63 5.50 76.00 5.50ZM74.44 8.46L74.44 8.46L77.50 8.46L77.50 8.41L77.50 8.41Q77.50 6.92 76.00 6.92L76.00 6.92L76.00 6.92Q74.56 6.92 74.44 8.46ZM82.43 7.37L82.43 11.01L82.43 11.01Q83.06 11.21 83.88 11.21L83.88 11.21L83.88 11.21Q85.52 11.21 85.52 8.89L85.52 8.89L85.52 8.89Q85.52 7 84.10 7L84.10 7L84.10 7Q83.19 7 82.43 7.37L82.43 7.37ZM80.62 12.38L80.62 2.90L82.43 2.90L82.43 6.04L82.43 6.04Q83.25 5.50 84.25 5.50L84.25 5.50L84.25 5.50Q87.31 5.50 87.31 8.94L87.31 8.94L87.31 8.94Q87.31 12.67 83.80 12.67L83.80 12.67L83.80 12.67Q82.33 12.67 80.62 12.38L80.62 12.38ZM88.68 2.90L90.49 2.90L90.49 12.67L88.68 12.67L88.68 2.90ZM93.67 9.06L93.67 9.06Q93.67 11.31 95.41 11.31L95.41 11.31L95.41 11.31Q97.15 11.31 97.15 9.06L97.15 9.06L97.15 9.06Q97.15 6.86 95.41 6.86L95.41 6.86L95.41 6.86Q93.67 6.86 93.67 9.06L93.67 9.06ZM91.85 9.08L91.85 9.08L91.85 9.08Q91.85 5.48 95.41 5.48L95.41 5.48L95.41 5.48Q98.96 5.48 98.96 9.08L98.96 9.08L98.96 9.08Q98.96 12.69 95.41 12.69L95.41 12.69L95.41 12.69Q91.87 12.69 91.85 9.08ZM99.99 10.44L99.99 10.44L99.99 10.44Q99.99 8.30 103.11 8.30L103.11 8.30L103.11 8.30Q103.84 8.30 104.57 8.44L104.57 8.44L104.57 7.90L104.57 7.90Q104.57 6.93 103.18 6.93L103.18 6.93L103.18 6.93Q102.01 6.93 100.57 7.27L100.57 7.27L100.57 5.84L100.57 5.84Q102.01 5.50 103.18 5.50L103.18 5.50L103.18 5.50Q106.38 5.50 106.38 7.86L106.38 7.86L106.38 12.67L105.33 12.67L104.69 12.03L104.69 12.03Q103.75 12.67 102.62 12.67L102.62 12.67L102.62 12.67Q99.99 12.67 99.99 10.44ZM104.57 9.67L104.57 9.67Q103.89 9.53 103.11 9.53L103.11 9.53L103.11 9.53Q101.80 9.53 101.80 10.42L101.80 10.42L101.80 10.42Q101.80 11.38 102.89 11.38L102.89 11.38L102.89 11.38Q103.80 11.38 104.57 10.81L104.57 10.81L104.57 9.67ZM107.99 10.74L107.99 4.33L109.33 4.33L109.60 5.50L111.41 5.50L111.41 6.93L109.80 6.93L109.80 10.23L109.80 10.23Q109.80 11.24 110.67 11.24L110.67 11.24L111.41 11.24L111.41 12.67L109.79 12.67L109.79 12.67Q107.99 12.67 107.99 10.74L107.99 10.74Z"></path></g><!----><g data-v-423bf9ae="" id="316ac0c6-1eec-4157-970a-b5cb5669f298" transform="matrix(4.5,0,0,4.5,294,0)" stroke="none" fill="#22C4D6"><path d="M10 20h10v-9H10v9zM0 20h9v-9H0v9zm10-10h10V0H10v10zM0 10h9V0H0v10z"></path></g><!----></svg>